<svg xmlns="http://www.w3.org/2000/svg" width="99" height="76" viewBox="0 0 99 76"><g><g><path fill="#fff" d="M0 18.974h38.797v57.022H0zm22.088 52.329c0-1.009-.838-1.83-1.871-1.83s-1.869.821-1.869 1.83c0 1.007.836 1.835 1.869 1.835s1.874-.828 1.87-1.835zM5.61 66.542H33.19l.002-42.073H5.61zm13.578-50.005H13.71V-.003h73.131V30.08h-5.479V5.36H19.188zm22.11 25.335H70.11v5.366H41.297zM99 32.162v42.943H72.943V32.162zm-13.08 2.395c0 .338.282.619.63.619a.626.626 0 0 0 .629-.619.622.622 0 0 0-.629-.616.622.622 0 0 0-.63.616zm-3.118 2.033h7.496V36h-7.496zm5.005 35.186c0-.814-.675-1.471-1.503-1.471-.832 0-1.504.662-1.504 1.471 0 .813.676 1.476 1.504 1.476s1.503-.663 1.503-1.476zM94.82 38.7l-17.695.004V68.23c3.355.027 10.928.003 17.695-.035zM70.11 49.434v7.617H41.297v-2.94h19.314v-1.425H41.297v-3.252z"/></g></g></svg>