<svg xmlns="http://www.w3.org/2000/svg" width="58" height="97" viewBox="0 0 58 97"><g><g><path fill="#18cfab" d="M16.418 89.866h35.966v4.965c0 1.19-.964 2.165-2.143 2.165H18.56c-1.178 0-2.143-.976-2.143-2.165zM4.683 18.196c0-10.053 8.06-18.2 18.005-18.2 9.945 0 18.004 8.147 18.004 18.2 0 6.695-3.59 12.544-8.917 15.708-.76-7.4-1.607-15.665-1.607-15.708-.193-1.906-1.114-3.574-2.593-4.68-1.222-.909-2.798-1.42-4.437-1.42-2.1 0-4.094.804-5.487 2.21-1.254 1.28-1.94 2.991-1.94 4.822l-.01 15.848c-6.484-2.763-11.028-9.241-11.018-16.78zm53.295 54.729c0 2.568-.686 5.08-1.982 7.28l-3.633 6.208H16.397C6.387 76.163 1.307 65.234.536 60.543 0 57.325 2.218 55.17 4.683 55.17c1.404 0 2.894.692 4.008 2.306.354.521.74 1.084 1.169 1.7 3.204 4.693 6.494 4.735 7.951 4.78h.033c.043 0 .096 0 .139-.013h.021c.515-.074.89-.508.89-1.029l.021-43.798c-.01-2.458 2.133-3.78 4.212-3.78 1.833 0 3.612 1.028 3.837 3.196 0 .044 2.765 27.072 2.775 27.157v.013h.01c.762-.684 2.026-1.083 3.473-1.083.536 0 1.094.054 1.661.16 1.833.37 13.836 4.28 19.784 6.241C56.66 51.67 58 53.543 58 55.656z"/></g></g></svg>